<?xml version="1.0" standalone="no"?><!DOCTYPE svg PUBLIC "-//W3C//DTD SVG 1.1//EN" "http://www.w3.org/Graphics/SVG/1.1/DTD/svg11.dtd"><svg t="1616750135508" class="icon" viewBox="0 0 1024 1024" version="1.1" xmlns="http://www.w3.org/2000/svg" p-id="5428" xmlns:xlink="http://www.w3.org/1999/xlink" width="200" height="200"><defs><style type="text/css"></style></defs><path d="M512 462.447a166.538 166.538 0 1 0-167.168-166.508A167.859 167.859 0 0 0 512 462.447z m-19.905 159.572a33.326 33.326 0 0 1-12.94-26.75 34.136 34.136 0 0 1 33.836-33.716 33.836 33.836 0 0 1 21.016 60.466l44.764 158.582a33.025 33.025 0 0 1-7.956 31.704l-44.764 44.614a16.302 16.302 0 0 1-24.019 0l-44.764-44.614a30.744 30.744 0 0 1-7.956-31.704zM366.719 478.3a233.58 233.58 0 1 1 379.1-182.36 236.882 236.882 0 0 1-88.568 183.35 398.646 398.646 0 0 1 288.552 382.614A100.667 100.667 0 0 1 845.316 962H178.654A100.667 100.667 0 0 1 78.167 861.903 399.847 399.847 0 0 1 366.72 478.3z m479.587 416.3a34.106 34.106 0 0 0 33.836-33.687 334.426 334.426 0 0 0-334.336-333.045h-66.651a334.426 334.426 0 0 0-334.337 333.045 34.106 34.106 0 0 0 33.836 33.686z" p-id="5429"></path></svg>